<svg width="14" height="12" viewBox="0 0 14 12" fill="none" xmlns="http://www.w3.org/2000/svg">
<path d="M9.37109 0.5H9.37207C9.79509 0.499034 10.2151 0.570684 10.6123 0.711914L10.7812 0.777344C11.2114 0.953939 11.6035 1.2112 11.9355 1.53418C12.2253 1.81537 12.4646 2.14305 12.6426 2.50293L12.7148 2.65918C12.9047 3.09718 13.0014 3.56078 13 4.03809V4.03906C13 4.48638 12.9075 4.96351 12.7158 5.46094V5.46191C12.5571 5.87682 12.322 6.31759 12.0156 6.77148C11.5306 7.48893 10.8542 8.25065 10 9.0332C8.57964 10.3333 7.17217 11.2322 7.12109 11.2646L6.75098 11.5H6.74902L6.37891 11.2646L6.37109 11.2598L6.35254 11.248C6.33972 11.2398 6.32165 11.2278 6.29883 11.2129C6.25316 11.1831 6.18809 11.1404 6.10742 11.0859C5.94609 10.9769 5.72042 10.821 5.45215 10.625C4.91452 10.2323 4.20851 9.68247 3.50098 9.03418C2.64648 8.25142 1.96949 7.4891 1.48438 6.77148H1.4834C1.17775 6.31862 0.943993 5.87744 0.783203 5.46094H0.78418C0.592454 4.96351 0.5 4.48638 0.5 4.03906C0.500013 3.56047 0.597036 3.09645 0.787109 2.6582C0.947046 2.28954 1.16924 1.95092 1.44434 1.65723L1.56543 1.53418C1.89931 1.20971 2.28802 0.954723 2.71973 0.777344H2.7207C3.16717 0.593339 3.63967 0.500035 4.12988 0.5C4.80962 0.5 5.47229 0.684428 6.04688 1.03223C6.18428 1.1154 6.31444 1.20662 6.4375 1.30566L6.75098 1.55859L7.06445 1.30566C7.1875 1.20665 7.3177 1.11538 7.45508 1.03223C8.02955 0.684526 8.69151 0.500053 9.37109 0.5Z" stroke="#ECECEC"/>
</svg>
